<svg width="76" height="57" viewBox="0 0 76 57" fill="none" xmlns="http://www.w3.org/2000/svg">
<g filter="url(#filter0_d_1_5)">
<path d="M20.512 21.272L19.7117 20.6724L19.3094 21.2094L19.6537 21.7852L20.512 21.272ZM37 48.848V49.848H38.763L37.8583 48.3348L37 48.848ZM27.568 48.848L26.6906 49.3277L26.975 49.848H27.568V48.848ZM15.76 27.248L16.6374 26.7683L15.9096 25.4369L14.9731 26.6309L15.76 27.248ZM12.88 30.92L12.0931 30.3029L11.88 30.5746V30.92H12.88ZM12.88 48.848V49.848H13.88V48.848H12.88ZM4.744 48.848H3.744V49.848H4.744V48.848ZM4.744 0.0319996V-0.968H3.744V0.0319996H4.744ZM12.952 0.0319996H13.952V-0.968H12.952V0.0319996ZM12.952 19.256H11.952V22.259L13.7524 19.8555L12.952 19.256ZM27.352 0.0319996V-0.968H26.8516L26.5516 -0.567521L27.352 0.0319996ZM36.424 0.0319996L37.2243 0.631565L38.4226 -0.968H36.424V0.0319996ZM19.6537 21.7852L36.1417 49.3612L37.8583 48.3348L21.3703 20.7588L19.6537 21.7852ZM37 47.848H27.568V49.848H37V47.848ZM28.4454 48.3683L16.6374 26.7683L14.8826 27.7277L26.6906 49.3277L28.4454 48.3683ZM14.9731 26.6309L12.0931 30.3029L13.6669 31.5371L16.5469 27.8651L14.9731 26.6309ZM11.88 30.92V48.848H13.88V30.92H11.88ZM12.88 47.848H4.744V49.848H12.88V47.848ZM5.744 48.848V0.0319996H3.744V48.848H5.744ZM4.744 1.032H12.952V-0.968H4.744V1.032ZM11.952 0.0319996V19.256H13.952V0.0319996H11.952ZM13.7524 19.8555L28.1524 0.63152L26.5516 -0.567521L12.1516 18.6565L13.7524 19.8555ZM27.352 1.032H36.424V-0.968H27.352V1.032ZM35.6237 -0.567566L19.7117 20.6724L21.3123 21.8716L37.2243 0.631565L35.6237 -0.567566ZM48.592 6.8V5.8H47.592V6.8H48.592ZM48.592 19.472H47.592V20.472H48.592V19.472ZM56.656 19.256L56.5077 18.267L56.5 18.2682L56.656 19.256ZM59.104 18.32L58.5493 17.4879L58.5359 17.4969L58.5228 17.5063L59.104 18.32ZM60.76 16.304L61.6738 16.7101L61.6778 16.7011L61.6816 16.6921L60.76 16.304ZM59.536 8.168L58.9153 8.95204L58.923 8.95818L58.9309 8.96416L59.536 8.168ZM48.592 26.024V25.024H47.592V26.024H48.592ZM48.592 42.08H47.592V43.08H48.592V42.08ZM60.616 40.424L61.2244 41.2176L61.2282 41.2147L60.616 40.424ZM62.272 30.128L61.3275 30.4565L61.3275 30.4565L62.272 30.128ZM60.544 27.608L59.8891 28.3637L59.9158 28.3868L59.944 28.408L60.544 27.608ZM57.808 26.384L57.5956 27.3612L57.616 27.3656L57.6367 27.3692L57.808 26.384ZM40.6 48.848H39.6V49.848H40.6V48.848ZM40.6 0.0319996V-0.968H39.6V0.0319996H40.6ZM60.832 0.823998L60.5242 1.77548L60.5322 1.77799L60.832 0.823998ZM65.296 3.128L64.6821 3.91735L64.6821 3.91735L65.296 3.128ZM68.392 6.872L67.5034 7.33064L67.5091 7.34181L67.5152 7.35283L68.392 6.872ZM67.6 18.608L66.8106 17.9941L66.8082 17.9972L67.6 18.608ZM62.92 22.424L62.4919 21.5203L60.2238 22.5946L62.6093 23.3745L62.92 22.424ZM68.968 26.744L68.1658 27.341L68.1702 27.3469L68.1747 27.3528L68.968 26.744ZM66.952 45.248L67.6028 46.0073L67.6049 46.0054L66.952 45.248ZM62.056 47.912L62.3651 48.863L62.3651 48.863L62.056 47.912ZM47.592 6.8V19.472H49.592V6.8H47.592ZM48.592 20.472H53.704V18.472H48.592V20.472ZM53.704 20.472C54.805 20.472 55.8417 20.397 56.812 20.2438L56.5 18.2682C55.6463 18.403 54.715 18.472 53.704 18.472V20.472ZM56.8043 20.2449C57.8931 20.0816 58.8641 19.7203 59.6852 19.1337L58.5228 17.5063C57.9999 17.8797 57.3389 18.1424 56.5077 18.2671L56.8043 20.2449ZM59.6587 19.152C60.5508 18.5573 61.2203 17.7306 61.6738 16.7101L59.8462 15.8979C59.5317 16.6054 59.0972 17.1227 58.5493 17.4879L59.6587 19.152ZM61.6816 16.6921C62.1366 15.6114 62.336 14.2645 62.336 12.704H60.336C60.336 14.1195 60.1514 15.1726 59.8384 15.9159L61.6816 16.6921ZM62.336 12.704C62.336 10.4127 61.6796 8.54112 60.1411 7.37184L58.9309 8.96416C59.7924 9.61888 60.336 10.7713 60.336 12.704H62.336ZM60.1567 7.38395C58.7619 6.2797 56.8512 5.8 54.568 5.8V7.8C56.6048 7.8 58.0061 8.23229 58.9153 8.95204L60.1567 7.38395ZM54.568 5.8H48.592V7.8H54.568V5.8ZM47.592 26.024V42.08H49.592V26.024H47.592ZM48.592 43.08H54.712V41.08H48.592V43.08ZM54.712 43.08C57.3466 43.08 59.5547 42.4977 61.2244 41.2176L60.0076 39.6304C58.7973 40.5583 57.0694 41.08 54.712 41.08V43.08ZM61.2282 41.2147C63.0683 39.7901 63.848 37.3976 63.848 34.376H61.848C61.848 37.1144 61.1397 38.7539 60.0038 39.6333L61.2282 41.2147ZM63.848 34.376C63.848 32.5845 63.6503 31.0467 63.2165 29.7995L61.3275 30.4565C61.6617 31.4173 61.848 32.7115 61.848 34.376H63.848ZM63.2165 29.7995C62.7815 28.5489 62.1029 27.5272 61.144 26.808L59.944 28.408C60.5211 28.8408 60.9945 29.4991 61.3275 30.4565L63.2165 29.7995ZM61.1989 26.8523C60.319 26.0897 59.2305 25.6164 57.9793 25.3988L57.6367 27.3692C58.5935 27.5356 59.329 27.8783 59.8891 28.3637L61.1989 26.8523ZM58.0204 25.4068C56.8307 25.1482 55.485 25.024 53.992 25.024V27.024C55.379 27.024 56.5773 27.1398 57.5956 27.3612L58.0204 25.4068ZM53.992 25.024H48.592V27.024H53.992V25.024ZM41.6 48.848V0.0319996H39.6V48.848H41.6ZM40.6 1.032H55.792V-0.968H40.6V1.032ZM55.792 1.032C57.4163 1.032 58.9924 1.27986 60.5242 1.77544L61.1398 -0.127447C59.4076 -0.687859 57.6237 -0.968 55.792 -0.968V1.032ZM60.5322 1.77799C62.1068 2.27287 63.4867 2.98766 64.6821 3.91735L65.9099 2.33865C64.5133 1.25233 62.9172 0.431123 61.1318 -0.129996L60.5322 1.77799ZM64.6821 3.91735C65.8613 4.83452 66.8005 5.96884 67.5034 7.33064L69.2806 6.41335C68.4475 4.79915 67.3227 3.43747 65.9099 2.33865L64.6821 3.91735ZM67.5152 7.35283C68.2402 8.67499 68.616 10.2097 68.616 11.984H70.616C70.616 9.91832 70.1758 8.04501 69.2688 6.39117L67.5152 7.35283ZM68.616 11.984C68.616 14.5016 67.9893 16.4786 66.8106 17.9941L68.3894 19.2219C69.8987 17.2814 70.616 14.8424 70.616 11.984H68.616ZM66.8082 17.9972C65.6035 19.5588 64.1659 20.7273 62.4919 21.5203L63.3481 23.3277C65.3221 22.3927 67.0045 21.0172 68.3918 19.2188L66.8082 17.9972ZM62.6093 23.3745C64.9132 24.1277 66.7558 25.4464 68.1658 27.341L69.7702 26.147C68.1082 23.9136 65.9188 22.3523 63.2307 21.4735L62.6093 23.3745ZM68.1747 27.3528C69.5883 29.1947 70.344 31.6958 70.344 34.952H72.344C72.344 31.3922 71.5157 28.4213 69.7613 26.1352L68.1747 27.3528ZM70.344 34.952C70.344 37.0433 69.9806 38.8694 69.2782 40.4499L71.1058 41.2621C71.9394 39.3866 72.344 37.2767 72.344 34.952H70.344ZM69.2782 40.4499C68.5684 42.047 67.576 43.3898 66.2991 44.4906L67.6049 46.0054C69.112 44.7062 70.2796 43.121 71.1058 41.2621L69.2782 40.4499ZM66.3012 44.4887C65.0704 45.5437 63.559 46.372 61.7469 46.961L62.3651 48.863C64.393 48.204 66.1456 47.2563 67.6028 46.0073L66.3012 44.4887ZM61.7469 46.961C59.9397 47.5483 57.9336 47.848 55.72 47.848V49.848C58.1144 49.848 60.3323 49.5237 62.3651 48.863L61.7469 46.961ZM55.72 47.848H40.6V49.848H55.72V47.848Z" fill="black"/>
</g>
<defs>
<filter id="filter0_d_1_5" x="0.744003" y="0.0319977" width="74.6" height="56.816" filterUnits="userSpaceOnUse" color-interpolation-filters="sRGB">
<feFlood flood-opacity="0" result="BackgroundImageFix"/>
<feColorMatrix in="SourceAlpha" type="matrix" values="0 0 0 0 0 0 0 0 0 0 0 0 0 0 0 0 0 0 127 0" result="hardAlpha"/>
<feOffset dy="4"/>
<feGaussianBlur stdDeviation="2"/>
<feComposite in2="hardAlpha" operator="out"/>
<feColorMatrix type="matrix" values="0 0 0 0 0 0 0 0 0 0 0 0 0 0 0 0 0 0 0.25 0"/>
<feBlend mode="normal" in2="BackgroundImageFix" result="effect1_dropShadow_1_5"/>
<feBlend mode="normal" in="SourceGraphic" in2="effect1_dropShadow_1_5" result="shape"/>
</filter>
</defs>
</svg>
